<svg xmlns="http://www.w3.org/2000/svg" height="508px" width="512px" version="1.1"><polyline points="107.0,0.0,106.5,4.0,105.5,8.0,105.0,12.0,104.5,16.0,104.0,20.0,103.5,24.0,103.0,28.0,103.0,32.0,102.5,36.0,102.5,40.0,102.5,44.0,102.0,48.0,102.5,52.0,102.5,56.0,102.5,60.0" stroke="black" stroke-width="1" fill="none" />
<polyline points="106.5,68.5,110.5,68.5,114.5,68.5,118.5,68.0,122.5,67.5,126.5,67.5,129.5,65.0,125.5,65.5,121.5,66.0,117.5,66.5,113.5,66.5,109.5,66.5,105.5,69.0,101.5,69.0,97.5,68.0" stroke="black" stroke-width="1" fill="none" />
<polyline points="90.0,67.0,89.5,71.0,89.0,75.0,88.5,79.0,88.0,83.0,88.0,87.0,89.5,90.0,90.0,86.0,92.0,82.0,92.0,78.0,89.5,75.5" stroke="black" stroke-width="1" fill="none" />
<polyline points="94.0,80.0,98.0,84.0,96.5,88.0,92.5,84.0,92.0,84.0,96.0,88.0,97.5,92.0,98.0,96.0,97.5,100.0,98.5,104.0" stroke="black" stroke-width="1" fill="none" />
<polyline points="107.5,99.5,108.0,103.5,108.5,107.5,109.5,111.5,110.0,115.5,111.0,119.5,112.0,123.5,114.0,127.5,115.5,131.5,118.0,135.5,121.5,140.0,125.5,144.0,131.5,150.0,135.5,151.5,139.5,153.0,143.5,154.0,147.5,155.0,151.5,155.5,155.5,156.5,159.5,157.0,163.5,157.5,167.5,157.0,171.5,157.0,175.5,157.0,179.5,156.0,183.5,155.5,187.5,155.0,185.0,151.5,189.0,150.5,193.0,148.5,197.0,147.0,197.5,146.5" stroke="black" stroke-width="1" fill="none" />
<polyline points="223.5,129.0,219.5,135.0,216.0,140.5,212.5,146.5,208.5,150.5,206.5,152.5,210.5,148.5,214.0,144.0,216.5,140.0,219.0,136.0,222.5,132.0,224.5,128.0,227.0,124.0,228.0,120.0,230.0,116.0,231.0,112.0,231.5,108.0,232.5,104.0,234.0,100.0,235.0,96.0,236.0,92.0,234.5,95.0" stroke="black" stroke-width="1" fill="none" />
<polyline points="232.5,85.5,236.5,85.0,236.0,84.0,232.0,84.0" stroke="black" stroke-width="1" fill="none" />
<polyline points="219.5,85.0,215.5,80.5,211.5,77.5,207.5,75.5,203.5,74.0,199.5,72.5,195.5,71.5,191.5,71.0,187.5,70.0,183.5,69.5,179.5,69.0,175.5,68.0,171.5,67.5,167.5,67.0,163.5,67.0,159.5,66.5,155.5,67.0,151.5,66.5,147.5,67.0,143.5,67.0,139.5,67.0,135.5,68.0,131.5,68.5,127.5,69.5,123.5,70.5,119.5,72.5,115.5,75.5,111.5,82.5" stroke="black" stroke-width="1" fill="none" />
<polyline points="116.0,78.0,116.0,82.0,113.0,84.5,111.5,88.5,114.0,92.5,114.0,96.5,112.5,100.5,111.5,101.0,109.5,97.0" stroke="black" stroke-width="1" fill="none" />
<polyline points="109.0,118.5,113.0,129.0,117.0,136.0,120.5,141.0,124.5,142.5,128.5,145.0" stroke="black" stroke-width="1" fill="none" />
<polyline points="121.0,141.5,125.0,146.0,129.0,149.0,133.0,149.0,137.0,150.5,141.5,150.5,145.5,152.5,149.5,153.5,153.5,153.5,157.5,154.5,161.5,155.0,165.5,154.0,169.5,155.0,173.5,154.5,177.5,154.5,181.5,153.5,185.5,153.0,189.5,153.0,193.5,152.0,197.5,149.5,201.5,145.5,205.5,142.5,209.5,138.0,213.5,133.0,217.5,127.0" stroke="black" stroke-width="1" fill="none" />
<polyline points="215.5,118.0,216.5,114.0,216.5,113.0" stroke="black" stroke-width="1" fill="none" />
<polyline points="214.5,100.0,211.0,96.0" stroke="black" stroke-width="1" fill="none" />
<polyline points="193.5,89.0,190.0,85.0" stroke="black" stroke-width="1" fill="none" />
<polyline points="188.5,75.0,184.5,74.5,180.5,74.5,176.5,74.0,171.5,75.5,167.5,76.5,163.5,77.5,159.5,78.0,155.5,81.0,150.5,82.5,146.5,87.0,149.5,84.0,153.5,82.0,159.5,78.0" stroke="black" stroke-width="1" fill="none" />
<polyline points="161.5,88.0,162.5,86.0,161.5,90.0,162.0,94.0,163.5,98.0,167.0,102.0" stroke="black" stroke-width="1" fill="none" />
<polyline points="162.0,93.5,166.0,100.5,170.0,102.5,174.0,103.5,178.0,102.5,182.0,100.0,186.0,95.5" stroke="black" stroke-width="1" fill="none" />
<polyline points="181.5,101.0,185.5,97.0,187.5,93.0,187.0,91.0,187.5,87.0,189.0,83.0,189.0,79.0,187.0,75.0,188.5,73.5,181.5,71.5,177.5,72.0,173.5,70.5,174.5,74.0,173.5,78.0,175.5,81.5,172.0,84.0,172.5,84.0,178.5,85.5,182.5,85.5,186.5,85.5,190.5,85.0,194.5,89.5" stroke="black" stroke-width="1" fill="none" />
<polyline points="201.0,73.0,210.0,77.0,215.5,81.0,219.0,85.0,221.5,89.0,223.5,93.0,225.5,97.0,223.5,101.5,221.5,105.5,223.5,108.0,223.0,112.0,222.0,116.0,220.5,120.0,219.0,124.0,217.0,128.0,214.5,132.0,211.0,136.0,208.0,140.0,204.5,144.0,198.5,148.0,192.5,152.0" stroke="black" stroke-width="1" fill="none" />
<polyline points="209.5,200.0,212.0,204.0,217.5,208.0,223.5,212.0,222.5,211.0,218.5,208.0,214.5,206.5,210.5,203.0" stroke="black" stroke-width="1" fill="none" />
<polyline points="222.5,194.5,226.5,194.5,230.5,196.0,234.5,198.5" stroke="black" stroke-width="1" fill="none" />
<polyline points="231.0,255.5,235.0,257.0,239.0,257.5,243.0,260.0,243.0,260.5,236.0,256.5" stroke="black" stroke-width="1" fill="none" />
<polyline points="224.0,272.5,220.0,272.0,216.0,273.0,212.0,273.5,208.0,274.5,211.0,273.0,206.5,274.0,202.5,274.5,198.5,274.0,194.5,273.5,190.5,274.5" stroke="black" stroke-width="1" fill="none" />
<polyline points="262.0,279.0,266.0,274.5,267.0,274.0,262.5,278.0,263.0,282.0" stroke="black" stroke-width="1" fill="none" />
<polyline points="358.5,265.5,362.5,256.0,366.5,247.5,370.5,237.5" stroke="black" stroke-width="1" fill="none" />
<polyline points="359.0,266.5,363.0,269.5,367.0,273.0,371.0,277.5,375.0,279.5,379.0,281.0,383.0,283.0,387.0,285.0,391.0,287.0,395.0,289.5,399.0,293.0,403.0,295.5,407.0,299.5,411.0,304.0,415.0,311.0,419.0,312.5,420.5,317.0,425.5,324.0,429.5,329.0,433.5,333.5,437.5,336.5,441.5,339.5,445.5,339.0,449.0,339.5,452.5,340.5,456.5,341.0,460.5,342.5,464.5,343.0,468.5,343.5,472.5,343.5,476.5,343.5,480.5,342.5,484.5,342.5,488.5,343.0,492.5,342.0,496.5,342.5,500.5,343.0,504.5,343.0,508.5,343.0" stroke="black" stroke-width="1" fill="none" />
<polyline points="369.0,313.0,365.0,306.5,361.0,302.0" stroke="black" stroke-width="1" fill="none" />
<polyline points="366.5,327.5,366.5,331.5,365.5,335.5,362.0,339.5,360.5,343.5,358.0,347.5,356.5,351.5,354.0,355.5,351.5,359.5,350.0,363.5,348.0,367.5,346.5,371.5,345.0,375.5,343.0,379.5,341.5,383.5,340.0,387.5,338.0,391.5,336.0,395.5,334.5,399.5,333.5,403.5,332.0,407.5,331.5,411.5,330.0,415.5,328.0,419.5,327.0,423.5,326.5,427.5,325.0,431.5,324.0,435.5,321.5,439.5,318.0,443.5,315.5,446.5,312.0,450.5,307.0,454.5,303.5,458.5,300.5,462.5,297.0,465.5,296.0,469.5,294.0,473.5,291.0,477.0,293.5,480.0,288.0,479.5,288.5,483.5,284.5,489.5" stroke="black" stroke-width="1" fill="none" />
<polyline points="287.0,479.0,283.5,483.0,280.5,487.0,282.5,484.0,286.5,479.5,293.0,477.5" stroke="black" stroke-width="1" fill="none" />
<polyline points="302.0,479.5,304.5,475.0,307.0,471.0,311.5,467.0,314.0,463.0,314.0,459.0,317.0,456.0,318.5,452.0,319.5,448.0,323.0,444.0,319.5,448.0" stroke="black" stroke-width="1" fill="none" />
<polyline points="321.0,440.0,316.5,445.5,313.5,449.5,308.5,453.5,304.5,457.5,300.5,462.0" stroke="black" stroke-width="1" fill="none" />
<polyline points="307.0,464.0,306.5,468.0,299.5,471.5,296.0,475.5,292.5,479.5,293.0,479.0,296.0,475.5,300.0,471.0,305.0,469.0,309.0,465.0,311.0,469.5,310.5,473.5,306.5,477.5,309.5,474.0" stroke="black" stroke-width="1" fill="none" />
<polyline points="296.5,453.0,292.5,456.5,297.5,451.5,298.0,447.5,299.5,443.5,298.5,444.5" stroke="black" stroke-width="1" fill="none" />
<polyline points="293.0,447.5,293.0,447.5,293.0,451.5,291.5,455.5,290.0,459.5,289.5,463.5,287.0,467.5,285.0,471.5,281.5,475.0,279.5,479.0,277.5,483.0,274.5,487.0,275.5,488.5,274.0,493.5" stroke="black" stroke-width="1" fill="none" />
<polyline points="273.5,487.5,277.5,483.0,281.5,475.0,286.0,470.5" stroke="black" stroke-width="1" fill="none" />
<polyline points="277.5,469.5,278.0,469.0,277.0,473.0,275.5,477.0,273.5,481.0,272.0,485.0,270.0,489.0,267.0,492.0,264.5,494.5" stroke="black" stroke-width="1" fill="none" />
<polyline points="260.5,485.5,258.5,481.5" stroke="black" stroke-width="1" fill="none" />
<polyline points="250.5,484.5,254.5,484.0,258.5,480.0,255.0,483.5,251.5,486.0,249.5,490.0,246.5,495.0,250.5,489.0,254.5,487.0,254.0,491.0,250.0,495.5,249.0,497.0,253.0,493.5,257.0,493.5,261.0,492.5,265.0,493.0,269.5,490.5,273.0,481.5" stroke="black" stroke-width="1" fill="none" />
<polyline points="270.5,476.0,266.5,479.0,262.5,484.5,259.0,483.5,264.5,482.5,267.5,478.5,269.5,474.5" stroke="black" stroke-width="1" fill="none" />
<polyline points="250.0,480.5,246.0,481.5,242.0,485.0,245.0,484.0,247.0,480.0" stroke="black" stroke-width="1" fill="none" />
<polyline points="246.5,495.0,242.5,495.5,240.0,492.0,236.0,489.5,232.0,484.5,227.0,485.5,227.0,488.0,223.0,491.0,219.0,493.5,225.0,490.0,227.0,486.0" stroke="black" stroke-width="1" fill="none" />
<polyline points="223.0,498.0,228.0,494.0,224.5,496.5,220.5,498.5,216.5,494.0" stroke="black" stroke-width="1" fill="none" />
<polyline points="217.0,488.0,214.5,484.0,214.0,481.0,210.0,479.0,206.0,476.5,206.0,476.5,212.5,480.5,214.5,484.5,217.5,488.5,218.0,492.5,219.5,496.5,219.0,497.5" stroke="black" stroke-width="1" fill="none" />
<polyline points="205.5,476.0,204.5,476.5,200.5,477.0,196.5,475.5,192.5,473.0,188.5,468.5,184.0,468.5,188.0,472.5,192.0,476.5,196.0,479.5" stroke="black" stroke-width="1" fill="none" />
<polyline points="193.5,471.0,191.5,469.0,191.5,465.0" stroke="black" stroke-width="1" fill="none" />
<polyline points="194.5,473.5,189.5,469.5,187.0,465.0,186.5,461.0,184.5,456.5" stroke="black" stroke-width="1" fill="none" />
<polyline points="178.5,454.0,180.0,451.5,178.5,447.5,174.5,446.5,173.0,442.5,170.0,438.0,167.5,434.0,164.0,431.5,162.5,427.5,160.0,425.0,156.0,421.5,158.0,417.0,161.0,421.0,163.5,425.0,166.0,429.0,169.5,433.0,173.0,437.0,176.5,441.0,180.5,445.0,181.5,449.0,182.0,453.0,182.0,457.0,182.0,461.0,179.0,463.0,183.5,467.0,185.0,471.0,187.5,472.5,191.5,476.5,194.5,480.5,196.5,482.0,200.5,479.5,204.5,479.5" stroke="black" stroke-width="1" fill="none" />
<polyline points="225.0,480.5,218.5,476.5,212.0,472.5,204.5,468.5,199.5,464.5,195.0,460.5,190.0,456.5,186.5,452.5,183.0,448.5,179.0,448.5,174.0,443.0,169.5,437.0,165.5,432.0" stroke="black" stroke-width="1" fill="none" />
<polyline points="159.5,428.0,163.5,434.0,167.5,442.5,171.5,445.0,175.5,449.5,178.0,450.0" stroke="black" stroke-width="1" fill="none" />
<polyline points="184.0,460.5,184.0,456.0,177.5,456.5,177.0,454.5,178.0,451.5,174.0,449.0,171.0,445.0,169.0,441.0,166.5,441.0,164.5,437.0,162.5,433.0,160.0,429.0,159.5,425.0,157.0,421.0,154.5,417.0,152.5,413.0,150.5,409.0,150.5,409.0,154.5,417.0,158.5,417.5,162.5,423.0,166.5,429.0,170.5,433.5,174.5,438.0,178.5,442.5,182.5,447.0,186.5,452.0,190.5,456.5,194.5,459.5,198.5,463.0,202.5,466.5,206.5,469.5,210.5,471.5,214.5,473.5,218.5,476.0,222.5,479.0,226.5,480.5,233.0,482.0,237.0,479.0,241.0,477.0,245.0,474.0,249.0,471.5,253.0,469.0,257.0,466.5,261.0,463.5,265.0,460.5,269.0,457.5,273.0,454.5,277.0,451.5,281.0,448.5,285.0,445.0,289.0,442.0,293.0,438.5,297.0,435.0,301.0,431.5,305.0,428.0,309.0,424.5,313.0,419.5,317.0,415.0,321.0,410.5,325.0,406.0,329.0,401.0,333.0,395.0,337.0,389.5,337.0,389.5,334.5,393.5,331.5,397.5,328.5,401.5,325.5,405.5,322.0,409.5,318.0,413.5,315.0,417.5,311.0,421.5,307.5,425.5,303.5,429.5,299.5,433.5,294.0,437.5,289.5,441.5,284.5,445.5,279.5,449.5,274.0,453.5,269.0,457.5,263.5,461.5,258.5,465.5,252.5,469.5,246.5,473.5,240.0,477.5,234.0,481.5,233.5,485.5,235.5,489.5,241.5,493.0,244.0,497.5,240.5,500.0,238.5,502.0,240.5,502.0,244.5,502.0,248.5,501.0,252.5,500.5,256.5,499.5,260.5,498.0,264.5,497.0,268.5,496.0,272.5,494.5,276.5,493.0,280.5,491.5,284.5,489.5,288.5,487.0,292.5,485.5,296.5,483.0,300.5,480.5,304.5,474.5,308.5,469.5,312.5,465.5,317.5,455.5" stroke="black" stroke-width="1" fill="none" />
<polyline points="307.0,443.0,305.0,447.0,303.0,451.0,301.5,453.0,303.0,450.0,307.0,443.0" stroke="black" stroke-width="1" fill="none" />
<polyline points="331.5,409.0,335.5,396.0,339.5,388.0,343.5,378.5,347.5,368.5,351.5,359.0,355.5,352.5" stroke="black" stroke-width="1" fill="none" />
<polyline points="358.0,346.5,362.0,339.5" stroke="black" stroke-width="1" fill="none" />
<polyline points="361.5,269.0,366.5,273.0,370.0,277.0,378.0,281.0,385.0,283.0,390.0,287.0,397.0,291.0,401.5,295.0,406.5,299.0,409.5,303.0,413.0,307.0,414.5,311.0,417.5,315.0,419.5,315.5,421.0,319.5,423.5,320.0,425.5,324.5,427.5,328.5,432.0,332.5,437.0,336.5" stroke="black" stroke-width="1" fill="none" />
<polyline points="376.5,205.5,380.5,202.0,384.5,197.5,388.5,190.5,392.5,181.5" stroke="black" stroke-width="1" fill="none" />
<polyline points="364.5,153.0,360.5,154.5,365.0,152.5" stroke="black" stroke-width="1" fill="none" />
<polyline points="378.5,124.5,374.5,133.5,374.5,134.5,376.0,130.5,377.5,126.5,379.5,122.5,380.5,118.5,381.5,114.5,382.0,110.5,382.5,106.5,383.0,102.5,382.5,98.5,382.0,94.5,378.5,90.5,377.5,85.0,374.0,86.5,370.0,87.5,367.5,86.0,367.5,82.0,367.5,78.0,365.0,74.0,365.0,72.5,369.0,73.0,370.5,75.0,369.5,78.0,376.0,82.0,378.5,84.5,381.5,88.5,382.5,92.5,383.5,96.5,384.5,100.5,384.5,105.0,384.5,109.0,384.0,113.0,383.0,117.0,382.0,121.0,381.0,125.0,379.5,129.0,377.5,133.0,375.5,137.0,373.0,141.0,370.5,145.0,367.0,149.0,359.5,153.0,356.5,156.5,352.5,158.0,348.5,158.5,344.5,159.5,340.5,160.5,336.5,160.5,332.5,160.0,328.5,159.5" stroke="black" stroke-width="1" fill="none" />
<polyline points="321.0,160.0,325.0,160.0,329.0,158.0,333.0,158.0,337.0,158.5,341.0,158.0,345.0,157.5,349.0,156.5,353.0,155.5,357.0,154.5,361.0,152.5,365.0,150.5,369.0,147.0,373.0,141.0,377.0,134.0,381.0,124.0" stroke="black" stroke-width="1" fill="none" />
<polyline points="376.5,139.5,378.5,135.5,380.0,131.5,381.5,127.0,383.0,123.0,384.0,119.0,385.0,115.0,386.0,111.0,386.0,107.0" stroke="black" stroke-width="1" fill="none" />
<polyline points="392.5,98.0,388.5,103.5,388.5,103.5,392.0,99.5,393.5,95.5,395.5,91.5,399.0,90.5,400.0,86.5,394.0,93.0" stroke="black" stroke-width="1" fill="none" />
<polyline points="402.5,88.0,406.5,90.0" stroke="black" stroke-width="1" fill="none" />
<polyline points="403.5,77.0,403.5,81.0,403.5,85.0,404.5,89.0,408.5,93.0,409.5,97.0,408.0,101.0,407.0,105.0,406.5,109.0,406.5,113.0,406.5,117.0,406.0,121.0,405.5,125.0,404.5,129.0,403.0,133.0,402.0,137.0,401.0,141.0,399.5,145.0,399.0,149.0,399.0,153.0,398.5,157.0,398.0,161.0,397.5,165.0,396.5,169.0,395.5,173.0,394.5,177.0,393.0,181.0,391.0,185.0,389.5,189.0,387.5,193.0,385.0,197.0,381.0,201.0,377.0,205.0,376.5,209.0,376.0,213.0,375.5,217.0,375.0,221.0,374.0,225.0,373.0,229.0,372.0,233.0,371.0,237.0,369.5,241.0,367.5,245.0,366.0,249.0,364.0,253.0,362.0,257.0,360.5,261.0,359.0,265.0,359.0,269.0,359.0,273.0,359.0,277.0,359.5,281.0,359.0,285.0,359.5,289.0,360.0,293.0,360.0,297.0,360.5,301.0,364.0,305.0,366.5,309.0,369.0,313.0,369.5,317.0" stroke="black" stroke-width="1" fill="none" />
<polyline points="223.5,405.5,219.5,402.0" stroke="black" stroke-width="1" fill="none" />
<polyline points="146.5,381.5,142.5,376.5" stroke="black" stroke-width="1" fill="none" />
<polyline points="141.5,367.0,137.5,361.0,135.0,357.0,133.5,351.5,131.5,344.0,127.5,340.0" stroke="black" stroke-width="1" fill="none" />
<polyline points="135.0,368.5,136.5,372.5" stroke="black" stroke-width="1" fill="none" />
<polyline points="146.0,381.0,142.5,377.0,142.0,372.0,141.5,368.0,139.0,364.0,136.5,360.0,135.5,356.0,133.5,352.0,132.0,348.0,131.0,343.0,128.0,339.5,127.0,335.5,126.5,331.5,129.5,327.5,129.0,323.5,128.5,319.5,128.5,315.5,128.0,311.5,128.0,307.5,127.5,303.5,127.0,299.5,124.0,299.0,120.0,302.0,116.0,303.0,112.0,305.0" stroke="black" stroke-width="1" fill="none" />
<polyline points="123.0,275.5,119.0,267.0,115.0,258.0,111.0,249.0,107.0,238.0" stroke="black" stroke-width="1" fill="none" />
<polyline points="99.0,199.0,95.0,197.5,91.0,196.0,87.0,191.0" stroke="black" stroke-width="1" fill="none" />
<polyline points="83.5,179.0,79.5,170.0" stroke="black" stroke-width="1" fill="none" />
<polyline points="119.0,133.5,123.0,138.0,127.0,142.0,128.0,146.5" stroke="black" stroke-width="1" fill="none" />
<polyline points="135.5,150.0,129.5,146.0,126.5,142.0,122.5,138.0,119.0,134.0,117.5,130.0,116.5,128.5" stroke="black" stroke-width="1" fill="none" />
<polyline points="111.5,121.0,115.5,130.5,119.5,138.0" stroke="black" stroke-width="1" fill="none" />
<polyline points="86.5,100.0,82.5,95.0,78.5,90.0" stroke="black" stroke-width="1" fill="none" />
<polyline points="72.5,91.0,76.5,89.0,78.5,91.5,82.5,95.5,85.5,99.5" stroke="black" stroke-width="1" fill="none" />
<polyline points="72.5,85.0,76.5,79.0,80.5,78.0,84.5,78.5,79.0,78.0,74.0,82.0,72.5,86.0,73.0,89.5,73.0,93.5,74.0,97.5,74.5,101.5,75.0,105.5,74.5,109.5,74.5,113.5,74.5,117.5,75.0,121.5,75.5,125.5,76.5,129.5,77.0,133.5,77.0,137.5,77.0,141.5,77.0,145.5,77.0,149.5,77.0,153.5,77.5,157.5,77.5,161.5,78.5,165.5,79.0,169.5,81.0,173.5,82.5,177.5,84.0,181.5,85.0,185.5,86.5,189.5,88.5,193.5,94.0,197.5,99.5,201.5,100.0,205.5,101.0,209.5,101.5,213.5,102.0,217.5,103.0,221.5,103.5,225.5,104.5,229.5,105.5,233.5,106.5,237.5,108.0,241.5,109.5,245.5,111.0,249.5,113.0,253.5,114.0,257.5,116.5,261.5,118.0,265.5,120.0,269.5,121.5,273.5,123.5,277.5,125.5,281.5,126.0,285.5,127.0,289.5,126.5,293.5,125.5,297.5,120.5,301.5,112.5,302.0,108.5,306.0,103.5,310.0,98.0,314.0,94.5,318.0,90.0,322.0,86.0,326.0,82.5,330.0,79.5,334.0,77.5,338.0,72.5,342.0,66.5,346.0,60.0,349.0,52.5,353.0,46.5,356.0" stroke="black" stroke-width="1" fill="none" />
<polyline points="24.5,363.0,18.0,367.0,16.5,368.5,16.5,365.5,12.0,369.5,7.0,372.0,10.5,370.0,14.5,367.5,18.5,366.5,22.5,364.5,26.5,362.5,30.5,361.0,35.0,359.5,38.0,358.5,42.0,357.0,45.0,357.0,49.0,355.0,53.0,353.0,57.0,352.0,61.0,349.0,65.0,347.0,69.0,344.5,73.0,341.5,77.0,338.5,81.0,332.0,85.0,327.0,89.0,323.0,93.0,319.5,97.0,315.5,101.0,312.0,105.0,309.0,109.0,305.5,113.0,302.0,117.0,300.0" stroke="black" stroke-width="1" fill="none" />
<polyline points="4.0,372.5,0.0,371.0" stroke="black" stroke-width="1" fill="none" />
<polyline points="108.0,95.5,104.0,96.0,102.0,95.5,100.5,91.5,100.0,88.0,98.0,84.0,95.0,80.0" stroke="black" stroke-width="1" fill="none" />
<polyline points="89.5,67.5,93.5,66.5,97.5,66.0,101.5,65.5,105.5,65.0,109.5,64.5,113.5,64.0,117.5,64.0,121.5,63.5,125.5,63.5,129.5,63.0,133.5,63.0,137.5,63.0,141.5,62.5,145.5,62.5,149.5,62.5,153.5,62.5,157.5,62.5,161.5,63.0,165.5,63.5,169.5,64.0,173.5,65.0,177.5,65.5,181.5,66.0,185.5,66.5,189.5,67.0,193.5,68.0,197.5,69.0,201.5,70.0,205.5,70.5,209.5,71.5,213.5,73.0,217.5,74.0,221.5,75.5,225.5,78.0,229.5,80.0,233.5,79.5,237.5,79.5,241.5,79.5,247.5,79.5,251.5,79.5,255.5,80.0,259.5,81.0,263.5,81.0,266.5,83.0,270.5,80.5,274.5,78.5,278.5,77.0,282.5,76.0,286.5,74.5,290.5,73.5,294.5,72.5,298.5,72.0,302.5,71.0,305.5,75.0,309.5,73.5,313.5,73.0,317.5,72.5,321.5,72.0,325.5,72.0,329.5,72.0,333.5,72.5,337.5,72.5,341.5,73.0,346.0,73.0,350.0,73.0,354.0,74.0,358.0,74.5,362.0,75.5,366.0,76.5,370.0,78.0,374.0,80.5,378.0,83.5,382.0,90.0,380.5,91.5,376.5,89.5,372.5,90.5,368.5,92.5" stroke="black" stroke-width="1" fill="none" />
<polyline points="372.0,86.5,371.5,90.5,368.5,95.0,371.5,95.5,375.5,94.0,379.5,97.0,377.0,94.0,379.5,98.0,379.5,102.0,377.0,106.0,377.0,110.0,376.5,114.0,376.0,118.0,375.5,122.0,374.5,126.0,373.0,130.0,372.5,134.0,371.5,138.0,369.0,142.0,366.0,146.0,361.0,150.0,357.5,152.0,361.5,150.0,365.5,146.5,369.5,141.5,375.0,141.5,379.0,134.0" stroke="black" stroke-width="1" fill="none" />
<polyline points="338.5,95.5,334.5,91.0,330.5,89.0,326.5,86.5,322.5,84.5,322.5,84.5,327.5,88.5,335.0,92.5" stroke="black" stroke-width="1" fill="none" />
<polyline points="323.5,98.5,319.5,104.0,315.5,107.0,311.5,107.0,307.5,106.5,303.5,104.0,299.5,98.5" stroke="black" stroke-width="1" fill="none" />
<polyline points="299.5,89.5,299.5,90.5,299.0,94.5,299.0,98.5,301.5,102.5,306.5,106.5" stroke="black" stroke-width="1" fill="none" />
<polyline points="308.0,86.5,304.0,86.5,300.0,86.5,296.0,86.5,295.5,83.5,294.5,79.5,294.0,78.0,289.5,77.0,282.5,81.0,278.0,85.0,275.0,89.0,273.0,93.0,269.5,97.0" stroke="black" stroke-width="1" fill="none" />
<polyline points="273.0,92.0,277.0,86.5,281.0,82.5,285.0,79.5,289.0,77.5,293.0,76.5,297.0,75.5,301.0,75.0,305.0,74.0,309.5,77.5,309.5,81.5,309.0,85.5,306.5,90.5" stroke="black" stroke-width="1" fill="none" />
<polyline points="320.0,86.0,323.5,90.0,324.0,94.0,324.0,98.0,321.5,102.0,316.5,106.0" stroke="black" stroke-width="1" fill="none" />
<polyline points="314.0,66.5,318.0,66.0,322.0,63.5,326.0,64.5" stroke="black" stroke-width="1" fill="none" />
<polyline points="283.5,73.0,273.5,77.0,275.5,76.0,279.5,74.5,283.5,73.0,287.5,72.0,291.5,71.0,295.5,70.5,299.5,70.0,303.5,70.0,308.0,70.0,312.0,69.5,316.0,69.0,320.0,68.5,324.0,68.0,328.0,68.0,332.0,68.5,336.0,68.0,340.0,68.0,344.0,68.0,348.0,68.5,352.0,68.5,356.0,69.0,360.0,69.0,364.0,69.5,368.0,70.5,372.0,70.5,376.0,71.0,380.0,71.5" stroke="black" stroke-width="1" fill="none" />
<polyline points="402.5,76.5,398.5,75.5,394.5,74.5,390.5,73.5,386.5,73.0,383.5,72.0,384.0,68.0,384.0,64.0,384.0,60.0,384.5,56.0,384.5,52.0,384.5,48.0,384.5,44.0,384.5,40.0,384.5,36.0,384.5,32.0,384.0,28.0,384.0,24.0,383.5,20.0,383.0,16.0,382.5,12.0,381.5,8.0,380.5,4.0,380.0,0.0" stroke="black" stroke-width="1" fill="none" />
<polyline points="277.5,77.0,269.0,81.0,266.0,85.0,266.0,89.0,266.5,93.0,271.0,97.5,267.5,94.5,261.0,91.0,261.0,91.0,263.5,95.0" stroke="black" stroke-width="1" fill="none" />
<polyline points="266.5,103.0,265.5,107.0,267.0,111.0,267.5,115.0,267.5,119.0,267.5,123.0,272.0,120.0,276.0,128.5,276.5,126.0,280.5,133.5,278.5,135.0,277.0,131.0,275.0,127.0,274.0,123.0,272.0,119.0,271.5,115.0,269.5,111.5" stroke="black" stroke-width="1" fill="none" />
<polyline points="273.5,117.0,274.5,121.0,276.0,125.0,277.5,129.0,280.0,133.0" stroke="black" stroke-width="1" fill="none" />
<polyline points="261.5,85.5,257.5,85.0,256.0,83.5,260.0,83.5,264.0,84.5,264.0,88.0,260.0,87.0,256.0,86.0,252.0,86.0,248.0,86.0,244.0,86.0,240.0,86.5,236.0,87.0,232.0,88.0,228.0,94.0,224.0,95.0,228.5,93.5,230.0,89.5,230.5,85.5,230.0,81.5,225.0,78.0,216.5,74.0" stroke="black" stroke-width="1" fill="none" />
<polyline points="212.0,58.5,208.0,56.0,208.0,56.0,213.5,60.0" stroke="black" stroke-width="1" fill="none" />
<polyline points="201.5,51.0,197.5,47.5,197.5,47.5,201.5,51.5,204.0,53.0" stroke="black" stroke-width="1" fill="none" />
<polyline points="200.0,67.5,196.0,66.5,192.0,66.0,188.0,65.0,184.0,64.5,180.0,64.0,176.0,63.5,172.0,62.5,168.0,61.5" stroke="black" stroke-width="1" fill="none" />
<polyline points="144.0,54.5,140.5,58.0,136.5,59.5,132.5,59.0" stroke="black" stroke-width="1" fill="none" />
<polyline points="123.0,70.5,117.0,74.5,113.5,78.5,111.5,82.5,109.5,86.5,109.0,90.5,108.5,94.5,105.5,99.5,106.0,103.5,106.5,107.5,107.5,111.5,108.0,115.5,109.0,119.5,110.5,123.5,112.0,127.5,114.0,131.5,116.0,135.5,118.5,139.5,122.5,143.5,126.5,147.5,134.5,151.5" stroke="black" stroke-width="1" fill="none" />
<polyline points="143.5,83.0,142.0,86.0,144.5,82.0" stroke="black" stroke-width="1" fill="none" />
<polyline points="0.0,369.0,144.0,369.0,144.0,372.0,8.0,508.0" stroke="black" stroke-width="1" fill="none" />
<polyline points="16.0,508.0,144.0,380.0,144.0,376.0,12.0,508.0" stroke="black" stroke-width="1" fill="none" />
<polyline points="24.0,508.0,148.0,384.0,148.0,380.0,20.0,508.0" stroke="black" stroke-width="1" fill="none" />
<polyline points="40.0,508.0,152.0,396.0,152.0,392.0,36.0,508.0" stroke="black" stroke-width="1" fill="none" />
<polyline points="72.0,508.0,160.0,420.0,156.0,420.0,68.0,508.0" stroke="black" stroke-width="1" fill="none" />
<polyline points="136.0,508.0,184.0,460.0,180.0,460.0,132.0,508.0" stroke="black" stroke-width="1" fill="none" />
<polyline points="196.0,508.0,216.0,488.0,216.0,484.0,192.0,508.0" stroke="black" stroke-width="1" fill="none" />
<polyline points="220.0,508.0,228.0,500.0,228.0,496.0,216.0,508.0" stroke="black" stroke-width="1" fill="none" />
<polyline points="228.0,508.0,236.0,500.0,232.0,500.0,224.0,508.0" stroke="black" stroke-width="1" fill="none" />
<polyline points="232.0,508.0,240.0,500.0,244.0,500.0,236.0,508.0" stroke="black" stroke-width="1" fill="none" />
<polyline points="248.0,508.0,256.0,500.0,252.0,500.0,244.0,508.0,240.0,508.0,248.0,500.0,248.0,503.0,512.0,503.0,512.0,504.0,508.0,508.0,504.0,508.0,512.0,500.0,512.0,496.0,500.0,508.0,496.0,508.0,512.0,492.0,512.0,488.0,492.0,508.0,488.0,508.0,512.0,484.0,512.0,480.0,484.0,508.0,480.0,508.0,512.0,476.0,512.0,472.0,476.0,508.0,472.0,508.0,512.0,468.0,512.0,464.0,468.0,508.0,464.0,508.0,512.0,460.0,512.0,456.0,460.0,508.0,456.0,508.0,512.0,452.0,512.0,448.0,452.0,508.0,448.0,508.0,512.0,444.0,512.0,440.0,444.0,508.0,440.0,508.0,512.0,436.0,512.0,432.0,436.0,508.0,432.0,508.0,512.0,428.0,512.0,424.0,428.0,508.0,424.0,508.0,512.0,420.0,512.0,416.0,420.0,508.0,416.0,508.0,512.0,412.0,512.0,408.0,412.0,508.0,408.0,508.0,512.0,404.0,512.0,400.0,404.0,508.0,400.0,508.0,512.0,396.0,512.0,392.0,396.0,508.0,392.0,508.0,512.0,388.0,512.0,384.0,388.0,508.0,384.0,508.0,512.0,380.0,512.0,376.0,380.0,508.0,376.0,508.0,512.0,372.0,512.0,368.0,372.0,508.0,368.0,508.0,512.0,364.0,512.0,360.0,364.0,508.0,360.0,508.0,512.0,356.0,512.0,352.0,356.0,508.0,352.0,508.0,512.0,348.0,512.0,344.0,348.0,508.0,344.0,508.0,508.0,344.0,504.0,344.0,340.0,508.0,336.0,508.0,500.0,344.0,500.0,340.0,332.0,508.0,328.0,508.0,496.0,340.0,492.0,340.0,324.0,508.0,320.0,508.0,488.0,340.0" stroke="black" stroke-width="1" fill="none" />
<polyline points="480.0,344.0,316.0,508.0,312.0,508.0,476.0,344.0,472.0,344.0,308.0,508.0,304.0,508.0,468.0,344.0,464.0,344.0,300.0,508.0,296.0,508.0,464.0,340.0,460.0,340.0,292.0,508.0,288.0,508.0,456.0,340.0,452.0,340.0,284.0,508.0,280.0,508.0,448.0,340.0,444.0,340.0,276.0,508.0,272.0,508.0,440.0,340.0,440.0,336.0,312.0,464.0,316.0,463.0,512.0,463.0" stroke="black" stroke-width="1" fill="none" />
<polyline points="436.0,336.0,316.0,456.0,316.0,459.0,512.0,459.0" stroke="black" stroke-width="1" fill="none" />
<polyline points="436.0,332.0,312.0,456.0" stroke="black" stroke-width="1" fill="none" />
<polyline points="320.0,455.0,512.0,455.0" stroke="black" stroke-width="1" fill="none" />
<polyline points="432.0,332.0,320.0,444.0,320.0,440.0,432.0,328.0,428.0,328.0,320.0,436.0,324.0,435.0,512.0,435.0" stroke="black" stroke-width="1" fill="none" />
<polyline points="428.0,324.0,324.0,428.0,328.0,427.0,512.0,427.0" stroke="black" stroke-width="1" fill="none" />
<polyline points="424.0,324.0,328.0,420.0,328.0,419.0,512.0,419.0" stroke="black" stroke-width="1" fill="none" />
<polyline points="424.0,320.0,328.0,416.0,332.0,415.0,512.0,415.0" stroke="black" stroke-width="1" fill="none" />
<polyline points="420.0,320.0,332.0,408.0,332.0,411.0,512.0,411.0" stroke="black" stroke-width="1" fill="none" />
<polyline points="420.0,316.0,332.0,404.0,336.0,403.0,512.0,403.0" stroke="black" stroke-width="1" fill="none" />
<polyline points="420.0,312.0,336.0,396.0,336.0,399.0,512.0,399.0" stroke="black" stroke-width="1" fill="none" />
<polyline points="416.0,312.0,336.0,392.0,336.0,388.0,416.0,308.0,412.0,308.0,332.0,388.0" stroke="black" stroke-width="1" fill="none" />
<polyline points="340.0,387.0,512.0,387.0" stroke="black" stroke-width="1" fill="none" />
<polyline points="412.0,304.0,340.0,376.0,344.0,379.0,512.0,379.0" stroke="black" stroke-width="1" fill="none" />
<polyline points="408.0,304.0,344.0,368.0,348.0,367.0,512.0,367.0" stroke="black" stroke-width="1" fill="none" />
<polyline points="408.0,300.0,348.0,360.0,352.0,359.0,512.0,359.0" stroke="black" stroke-width="1" fill="none" />
<polyline points="404.0,300.0,356.0,348.0,360.0,347.0,512.0,347.0" stroke="black" stroke-width="1" fill="none" />
<polyline points="404.0,296.0,360.0,340.0,364.0,339.0,436.0,339.0" stroke="black" stroke-width="1" fill="none" />
<polyline points="400.0,296.0,364.0,332.0,364.0,328.0,400.0,292.0,396.0,292.0,364.0,324.0,364.0,320.0,396.0,288.0,392.0,288.0,364.0,316.0,364.0,312.0,388.0,288.0,388.0,284.0,364.0,308.0,364.0,304.0,384.0,284.0,384.0,280.0,360.0,304.0,360.0,300.0,380.0,280.0,376.0,280.0,360.0,296.0,360.0,292.0,372.0,280.0,372.0,276.0,360.0,288.0,360.0,287.0,388.0,287.0" stroke="black" stroke-width="1" fill="none" />
<polyline points="368.0,276.0,360.0,284.0,360.0,283.0,380.0,283.0" stroke="black" stroke-width="1" fill="none" />
<polyline points="368.0,272.0,360.0,280.0,360.0,279.0,368.0,279.0" stroke="black" stroke-width="1" fill="none" />
<polyline points="364.0,272.0,360.0,276.0,360.0,275.0,368.0,275.0" stroke="black" stroke-width="1" fill="none" />
<polyline points="364.0,268.0,360.0,272.0,360.0,268.0,356.0,272.0" stroke="black" stroke-width="1" fill="none" />
<polyline points="360.0,291.0,392.0,291.0" stroke="black" stroke-width="1" fill="none" />
<polyline points="412.0,307.0,368.0,307.0,368.0,311.0,412.0,311.0" stroke="black" stroke-width="1" fill="none" />
<polyline points="424.0,327.0,372.0,327.0,372.0,323.0,420.0,323.0,420.0,319.0,372.0,319.0,372.0,315.0,416.0,315.0" stroke="black" stroke-width="1" fill="none" />
<polyline points="432.0,335.0,368.0,335.0,368.0,331.0,428.0,331.0" stroke="black" stroke-width="1" fill="none" />
<polyline points="456.0,343.0,364.0,343.0" stroke="black" stroke-width="1" fill="none" />
<polyline points="360.0,351.0,512.0,351.0" stroke="black" stroke-width="1" fill="none" />
<polyline points="408.0,303.0,364.0,303.0,364.0,299.0,404.0,299.0,400.0,295.0,364.0,295.0" stroke="black" stroke-width="1" fill="none" />
<polyline points="356.0,355.0,512.0,355.0" stroke="black" stroke-width="1" fill="none" />
<polyline points="512.0,363.0,352.0,363.0" stroke="black" stroke-width="1" fill="none" />
<polyline points="348.0,371.0,512.0,371.0,512.0,375.0,348.0,375.0" stroke="black" stroke-width="1" fill="none" />
<polyline points="344.0,383.0,512.0,383.0" stroke="black" stroke-width="1" fill="none" />
<polyline points="512.0,395.0,340.0,395.0,340.0,391.0,512.0,391.0" stroke="black" stroke-width="1" fill="none" />
<polyline points="512.0,407.0,336.0,407.0" stroke="black" stroke-width="1" fill="none" />
<polyline points="328.0,423.0,512.0,423.0" stroke="black" stroke-width="1" fill="none" />
<polyline points="512.0,431.0,328.0,431.0" stroke="black" stroke-width="1" fill="none" />
<polyline points="324.0,439.0,512.0,439.0" stroke="black" stroke-width="1" fill="none" />
<polyline points="512.0,447.0,324.0,447.0,324.0,443.0,512.0,443.0" stroke="black" stroke-width="1" fill="none" />
<polyline points="512.0,451.0,320.0,451.0" stroke="black" stroke-width="1" fill="none" />
<polyline points="308.0,441.0,512.0,441.0" stroke="black" stroke-width="1" fill="none" />
<polyline points="512.0,467.0,316.0,467.0,312.0,471.0,512.0,471.0" stroke="black" stroke-width="1" fill="none" />
<polyline points="512.0,421.0,316.0,421.0,312.0,425.0,512.0,425.0" stroke="black" stroke-width="1" fill="none" />
<polyline points="320.0,392.0,312.0,400.0,312.0,396.0,316.0,392.0" stroke="black" stroke-width="1" fill="none" />
<polyline points="308.0,429.0,512.0,429.0" stroke="black" stroke-width="1" fill="none" />
<polyline points="512.0,475.0,312.0,475.0,308.0,479.0,512.0,479.0" stroke="black" stroke-width="1" fill="none" />
<polyline points="512.0,437.0,308.0,437.0,308.0,433.0,512.0,433.0" stroke="black" stroke-width="1" fill="none" />
<polyline points="512.0,445.0,304.0,445.0,300.0,449.0,512.0,449.0" stroke="black" stroke-width="1" fill="none" />
<polyline points="512.0,483.0,300.0,483.0" stroke="black" stroke-width="1" fill="none" />
<polyline points="296.0,477.0,512.0,477.0,512.0,473.0,300.0,473.0,296.0,473.0,292.0,473.0,288.0,469.0,512.0,469.0" stroke="black" stroke-width="1" fill="none" />
<polyline points="512.0,453.0,296.0,453.0,292.0,457.0,512.0,457.0" stroke="black" stroke-width="1" fill="none" />
<polyline points="512.0,487.0,292.0,487.0,292.0,484.0,268.0,508.0,264.0,508.0,284.0,488.0,284.0,491.0,512.0,491.0" stroke="black" stroke-width="1" fill="none" />
<polyline points="512.0,481.0,292.0,481.0,288.0,485.0,512.0,485.0" stroke="black" stroke-width="1" fill="none" />
<polyline points="512.0,461.0,292.0,461.0,288.0,465.0,512.0,465.0" stroke="black" stroke-width="1" fill="none" />
<polyline points="288.0,473.0,284.0,473.0" stroke="black" stroke-width="1" fill="none" />
<polyline points="276.0,489.0,512.0,489.0" stroke="black" stroke-width="1" fill="none" />
<polyline points="276.0,492.0,260.0,508.0,256.0,508.0,268.0,496.0,268.0,493.0,512.0,493.0" stroke="black" stroke-width="1" fill="none" />
<polyline points="452.0,337.0,284.0,337.0,284.0,333.0,440.0,333.0" stroke="black" stroke-width="1" fill="none" />
<polyline points="392.0,181.0,332.0,181.0,332.0,177.0,392.0,177.0" stroke="black" stroke-width="1" fill="none" />
<polyline points="400.0,145.0,372.0,145.0,372.0,141.0,400.0,141.0" stroke="black" stroke-width="1" fill="none" />
<polyline points="404.0,129.0,380.0,129.0,380.0,125.0,404.0,125.0" stroke="black" stroke-width="1" fill="none" />
<polyline points="404.0,113.0,384.0,113.0,384.0,109.0,408.0,109.0" stroke="black" stroke-width="1" fill="none" />
<polyline points="392.0,100.0,388.0,104.0,384.0,104.0,396.0,92.0" stroke="black" stroke-width="1" fill="none" />
<polyline points="384.0,92.0,400.0,76.0,396.0,76.0,384.0,88.0,384.0,87.0,400.0,87.0" stroke="black" stroke-width="1" fill="none" />
<polyline points="404.0,80.0,384.0,100.0,384.0,99.0,392.0,99.0" stroke="black" stroke-width="1" fill="none" />
<polyline points="384.0,97.0,408.0,97.0" stroke="black" stroke-width="1" fill="none" />
<polyline points="404.0,76.0,384.0,96.0,384.0,95.0,392.0,95.0" stroke="black" stroke-width="1" fill="none" />
<polyline points="384.0,93.0,408.0,93.0" stroke="black" stroke-width="1" fill="none" />
<polyline points="392.0,76.0,380.0,88.0,380.0,89.0,404.0,89.0" stroke="black" stroke-width="1" fill="none" />
<polyline points="408.0,105.0,384.0,105.0,384.0,101.0,408.0,101.0" stroke="black" stroke-width="1" fill="none" />
<polyline points="396.0,91.0,384.0,91.0" stroke="black" stroke-width="1" fill="none" />
<polyline points="380.0,84.0,388.0,76.0,388.0,72.0,376.0,84.0,376.0,85.0,404.0,85.0" stroke="black" stroke-width="1" fill="none" />
<polyline points="384.0,72.0,376.0,80.0,376.0,79.0,400.0,79.0,400.0,83.0,380.0,83.0,376.0,81.0,404.0,81.0" stroke="black" stroke-width="1" fill="none" />
<polyline points="380.0,72.0,372.0,80.0,372.0,76.0,376.0,72.0,372.0,72.0,368.0,76.0,368.0,72.0,364.0,76.0,360.0,76.0,368.0,68.0,364.0,68.0,356.0,76.0,352.0,76.0,360.0,68.0,356.0,68.0,352.0,72.0,352.0,68.0,348.0,72.0,348.0,68.0,344.0,72.0,340.0,72.0,348.0,64.0,344.0,64.0,336.0,72.0,332.0,72.0,340.0,64.0,336.0,64.0,328.0,72.0,328.0,68.0,324.0,72.0,324.0,68.0,320.0,72.0,320.0,68.0,316.0,72.0,316.0,68.0,312.0,72.0,312.0,68.0,308.0,72.0,304.0,72.0,316.0,60.0,312.0,60.0,304.0,68.0,300.0,68.0,308.0,60.0,304.0,60.0,296.0,68.0,296.0,64.0,292.0,68.0,292.0,64.0,288.0,68.0,292.0,72.0,268.0,96.0,268.0,92.0,284.0,76.0,280.0,76.0,268.0,88.0,268.0,87.0,276.0,87.0,272.0,83.0,280.0,83.0" stroke="black" stroke-width="1" fill="none" />
<polyline points="272.0,80.0,268.0,84.0,268.0,81.0,296.0,81.0" stroke="black" stroke-width="1" fill="none" />
<polyline points="292.0,76.0,296.0,72.0" stroke="black" stroke-width="1" fill="none" />
<polyline points="308.0,81.0,368.0,81.0" stroke="black" stroke-width="1" fill="none" />
<polyline points="372.0,75.0,380.0,75.0" stroke="black" stroke-width="1" fill="none" />
<polyline points="352.0,92.0,344.0,100.0,348.0,100.0,352.0,96.0,348.0,92.0,344.0,96.0,340.0,96.0,348.0,88.0,344.0,88.0,340.0,92.0,340.0,88.0,336.0,92.0,336.0,88.0,332.0,92.0,332.0,88.0,336.0,84.0,332.0,84.0,328.0,88.0,324.0,88.0,308.0,104.0,312.0,104.0,324.0,92.0,324.0,96.0,316.0,104.0" stroke="black" stroke-width="1" fill="none" />
<polyline points="308.0,96.0,304.0,100.0,304.0,104.0,320.0,88.0" stroke="black" stroke-width="1" fill="none" />
<polyline points="320.0,80.0,300.0,100.0,300.0,101.0,328.0,101.0,332.0,101.0,380.0,101.0" stroke="black" stroke-width="1" fill="none" />
<polyline points="380.0,117.0,404.0,117.0,404.0,121.0,380.0,121.0" stroke="black" stroke-width="1" fill="none" />
<polyline points="376.0,133.0,404.0,133.0,400.0,137.0,376.0,137.0" stroke="black" stroke-width="1" fill="none" />
<polyline points="368.0,149.0,400.0,149.0" stroke="black" stroke-width="1" fill="none" />
<polyline points="372.0,137.0,356.0,137.0,356.0,133.0,372.0,133.0" stroke="black" stroke-width="1" fill="none" />
<polyline points="360.0,149.0,352.0,149.0,352.0,145.0,364.0,145.0,368.0,141.0,352.0,141.0" stroke="black" stroke-width="1" fill="none" />
<polyline points="344.0,153.0,400.0,153.0" stroke="black" stroke-width="1" fill="none" />
<polyline points="396.0,173.0,336.0,173.0,336.0,169.0,396.0,169.0,396.0,165.0,336.0,165.0,332.0,161.0,396.0,161.0" stroke="black" stroke-width="1" fill="none" />
<polyline points="352.0,133.0,336.0,133.0,336.0,129.0,372.0,129.0,372.0,125.0,332.0,125.0" stroke="black" stroke-width="1" fill="none" />
<polyline points="328.0,137.0,348.0,137.0" stroke="black" stroke-width="1" fill="none" />
<polyline points="344.0,145.0,328.0,145.0,328.0,141.0,348.0,141.0" stroke="black" stroke-width="1" fill="none" />
<polyline points="316.0,141.0,312.0,141.0,316.0,137.0,304.0,137.0" stroke="black" stroke-width="1" fill="none" />
<polyline points="300.0,121.0,376.0,121.0" stroke="black" stroke-width="1" fill="none" />
<polyline points="376.0,105.0,332.0,105.0" stroke="black" stroke-width="1" fill="none" />
<polyline points="312.0,92.0,324.0,80.0" stroke="black" stroke-width="1" fill="none" />
<polyline points="316.0,80.0,312.0,84.0,308.0,85.0,368.0,85.0" stroke="black" stroke-width="1" fill="none" />
<polyline points="356.0,71.0,332.0,71.0" stroke="black" stroke-width="1" fill="none" />
<polyline points="324.0,60.0,320.0,64.0,320.0,60.0,316.0,64.0" stroke="black" stroke-width="1" fill="none" />
<polyline points="312.0,77.0,404.0,77.0" stroke="black" stroke-width="1" fill="none" />
<polyline points="384.0,49.0,348.0,49.0,348.0,45.0,384.0,45.0" stroke="black" stroke-width="1" fill="none" />
<polyline points="384.0,17.0,348.0,17.0,348.0,13.0,380.0,13.0,380.0,9.0,348.0,9.0,348.0,5.0,380.0,5.0,380.0,1.0,348.0,1.0,344.0,1.0,340.0,1.0,340.0,5.0,336.0,5.0,336.0,9.0,340.0,9.0" stroke="black" stroke-width="1" fill="none" />
<polyline points="344.0,21.0,384.0,21.0" stroke="black" stroke-width="1" fill="none" />
<polyline points="384.0,41.0,344.0,41.0,344.0,37.0,384.0,37.0,384.0,33.0,344.0,33.0,344.0,29.0,384.0,29.0,384.0,25.0,344.0,25.0" stroke="black" stroke-width="1" fill="none" />
<polyline points="340.0,49.0,308.0,49.0" stroke="black" stroke-width="1" fill="none" />
<polyline points="300.0,53.0,384.0,53.0" stroke="black" stroke-width="1" fill="none" />
<polyline points="308.0,88.0,300.0,96.0,300.0,92.0,304.0,88.0" stroke="black" stroke-width="1" fill="none" />
<polyline points="304.0,105.0,324.0,105.0" stroke="black" stroke-width="1" fill="none" />
<polyline points="296.0,129.0,280.0,129.0" stroke="black" stroke-width="1" fill="none" />
<polyline points="272.0,120.0,268.0,124.0,268.0,120.0,272.0,116.0,272.0,112.0,268.0,116.0" stroke="black" stroke-width="1" fill="none" />
<polyline points="260.0,117.0,376.0,117.0" stroke="black" stroke-width="1" fill="none" />
<polyline points="384.0,193.0,328.0,193.0,328.0,189.0,388.0,189.0" stroke="black" stroke-width="1" fill="none" />
<polyline points="384.0,197.0,328.0,197.0,324.0,201.0,380.0,201.0" stroke="black" stroke-width="1" fill="none" />
<polyline points="388.0,185.0,328.0,185.0" stroke="black" stroke-width="1" fill="none" />
<polyline points="320.0,205.0,376.0,205.0,376.0,209.0,320.0,209.0,316.0,213.0,376.0,213.0,376.0,217.0,316.0,217.0,312.0,221.0,376.0,221.0" stroke="black" stroke-width="1" fill="none" />
<polyline points="396.0,157.0,308.0,157.0" stroke="black" stroke-width="1" fill="none" />
<polyline points="296.0,181.0,272.0,181.0,272.0,177.0,292.0,177.0,292.0,173.0,272.0,173.0,272.0,169.0,288.0,169.0,288.0,165.0,272.0,165.0,272.0,161.0,292.0,161.0,292.0,157.0,268.0,157.0,268.0,153.0,308.0,153.0" stroke="black" stroke-width="1" fill="none" />
<polyline points="296.0,185.0,268.0,185.0,264.0,189.0,296.0,189.0" stroke="black" stroke-width="1" fill="none" />
<polyline points="308.0,221.0,260.0,221.0,256.0,217.0,304.0,217.0" stroke="black" stroke-width="1" fill="none" />
<polyline points="288.0,249.0,364.0,249.0,364.0,253.0,280.0,253.0,280.0,249.0,284.0,249.0,280.0,245.0,368.0,245.0,368.0,241.0,276.0,241.0,272.0,241.0,268.0,241.0,268.0,237.0,368.0,237.0" stroke="black" stroke-width="1" fill="none" />
<polyline points="400.0,289.0,272.0,289.0,272.0,285.0,392.0,285.0" stroke="black" stroke-width="1" fill="none" />
<polyline points="432.0,329.0,280.0,329.0" stroke="black" stroke-width="1" fill="none" />
<polyline points="272.0,325.0,428.0,325.0" stroke="black" stroke-width="1" fill="none" />
<polyline points="512.0,341.0,280.0,341.0,276.0,345.0,512.0,345.0" stroke="black" stroke-width="1" fill="none" />
<polyline points="512.0,495.0,276.0,495.0" stroke="black" stroke-width="1" fill="none" />
<polyline points="264.0,496.0,252.0,508.0" stroke="black" stroke-width="1" fill="none" />
<polyline points="252.0,497.0,512.0,497.0" stroke="black" stroke-width="1" fill="none" />
<polyline points="272.0,449.0,268.0,449.0" stroke="black" stroke-width="1" fill="none" />
<polyline points="260.0,445.0,280.0,445.0" stroke="black" stroke-width="1" fill="none" />
<polyline points="292.0,437.0,264.0,437.0,264.0,433.0,296.0,433.0" stroke="black" stroke-width="1" fill="none" />
<polyline points="284.0,441.0,260.0,441.0" stroke="black" stroke-width="1" fill="none" />
<polyline points="260.0,429.0,304.0,429.0" stroke="black" stroke-width="1" fill="none" />
<polyline points="264.0,457.0,256.0,457.0" stroke="black" stroke-width="1" fill="none" />
<polyline points="248.0,453.0,268.0,453.0,264.0,449.0,244.0,449.0,248.0,445.0,236.0,445.0" stroke="black" stroke-width="1" fill="none" />
<polyline points="244.0,421.0,312.0,421.0,308.0,425.0,252.0,425.0" stroke="black" stroke-width="1" fill="none" />
<polyline points="240.0,417.0,512.0,417.0" stroke="black" stroke-width="1" fill="none" />
<polyline points="388.0,281.0,272.0,281.0,272.0,277.0,376.0,277.0" stroke="black" stroke-width="1" fill="none" />
<polyline points="268.0,268.0,264.0,272.0,264.0,268.0,260.0,272.0" stroke="black" stroke-width="1" fill="none" />
<polyline points="256.0,257.0,360.0,257.0" stroke="black" stroke-width="1" fill="none" />
<polyline points="272.0,249.0,268.0,249.0,264.0,253.0,276.0,253.0" stroke="black" stroke-width="1" fill="none" />
<polyline points="268.0,233.0,372.0,233.0,372.0,229.0,268.0,229.0,264.0,225.0,372.0,225.0" stroke="black" stroke-width="1" fill="none" />
<polyline points="296.0,149.0,268.0,149.0,264.0,145.0,292.0,145.0,292.0,141.0,264.0,141.0,264.0,137.0,296.0,137.0" stroke="black" stroke-width="1" fill="none" />
<polyline points="296.0,105.0,264.0,105.0,264.0,101.0,296.0,101.0" stroke="black" stroke-width="1" fill="none" />
<polyline points="272.0,91.0,268.0,91.0" stroke="black" stroke-width="1" fill="none" />
<polyline points="264.0,85.0,296.0,85.0" stroke="black" stroke-width="1" fill="none" />
<polyline points="284.0,57.0,384.0,57.0" stroke="black" stroke-width="1" fill="none" />
<polyline points="376.0,109.0,264.0,109.0,260.0,113.0,376.0,113.0" stroke="black" stroke-width="1" fill="none" />
<polyline points="380.0,97.0,264.0,97.0,260.0,93.0,368.0,93.0" stroke="black" stroke-width="1" fill="none" />
<polyline points="384.0,61.0,264.0,61.0,260.0,65.0,384.0,65.0" stroke="black" stroke-width="1" fill="none" />
<polyline points="304.0,133.0,260.0,133.0,260.0,129.0,276.0,129.0" stroke="black" stroke-width="1" fill="none" />
<polyline points="260.0,125.0,292.0,125.0,296.0,121.0,260.0,121.0" stroke="black" stroke-width="1" fill="none" />
<polyline points="260.0,89.0,376.0,89.0" stroke="black" stroke-width="1" fill="none" />
<polyline points="292.0,77.0,260.0,77.0,260.0,73.0,396.0,73.0" stroke="black" stroke-width="1" fill="none" />
<polyline points="384.0,69.0,260.0,69.0" stroke="black" stroke-width="1" fill="none" />
<polyline points="228.0,76.0,220.0,84.0,220.0,83.0,228.0,83.0,228.0,84.0,224.0,88.0,224.0,87.0,228.0,87.0,228.0,88.0,224.0,92.0,224.0,91.0,228.0,91.0,232.0,88.0,224.0,96.0,220.0,97.0,236.0,97.0,232.0,101.0,220.0,101.0,216.0,105.0,232.0,105.0" stroke="black" stroke-width="1" fill="none" />
<polyline points="232.0,113.0,220.0,113.0,216.0,117.0,232.0,117.0" stroke="black" stroke-width="1" fill="none" />
<polyline points="224.0,129.0,216.0,129.0,216.0,125.0,224.0,125.0,228.0,121.0,216.0,121.0" stroke="black" stroke-width="1" fill="none" />
<polyline points="212.0,133.0,220.0,133.0,216.0,137.0,212.0,137.0,212.0,141.0,208.0,141.0" stroke="black" stroke-width="1" fill="none" />
<polyline points="204.0,125.0,188.0,125.0,184.0,121.0,208.0,121.0" stroke="black" stroke-width="1" fill="none" />
<polyline points="216.0,101.0,192.0,101.0,196.0,97.0,216.0,97.0" stroke="black" stroke-width="1" fill="none" />
<polyline points="220.0,88.0,228.0,80.0,224.0,76.0,216.0,84.0,216.0,80.0,220.0,76.0,220.0,72.0,212.0,80.0,212.0,76.0,216.0,72.0,212.0,72.0,208.0,76.0,208.0,75.0,212.0,75.0,208.0,72.0,204.0,76.0,204.0,72.0,208.0,68.0,204.0,68.0,200.0,72.0,200.0,68.0,196.0,72.0,192.0,73.0,228.0,73.0" stroke="black" stroke-width="1" fill="none" />
<polyline points="224.0,79.0,216.0,79.0" stroke="black" stroke-width="1" fill="none" />
<polyline points="200.0,93.0,236.0,93.0,236.0,89.0,196.0,89.0,192.0,85.0,232.0,85.0,232.0,81.0,192.0,81.0,192.0,77.0,228.0,77.0" stroke="black" stroke-width="1" fill="none" />
<polyline points="196.0,60.0,192.0,64.0,188.0,64.0,196.0,56.0,192.0,56.0,184.0,64.0,184.0,60.0,188.0,56.0,184.0,56.0,180.0,60.0,180.0,56.0,176.0,60.0,176.0,56.0,172.0,60.0,172.0,64.0,168.0,68.0,168.0,64.0,164.0,68.0,164.0,64.0,160.0,68.0,160.0,64.0,156.0,68.0,156.0,64.0,152.0,68.0,148.0,68.0,156.0,60.0" stroke="black" stroke-width="1" fill="none" />
<polyline points="148.0,64.0,144.0,68.0,144.0,64.0,140.0,68.0,140.0,64.0,136.0,68.0,136.0,64.0,132.0,68.0,132.0,64.0,128.0,68.0,128.0,64.0,120.0,72.0" stroke="black" stroke-width="1" fill="none" />
<polyline points="120.0,64.0,96.0,88.0,96.0,89.0,120.0,89.0,120.0,93.0,116.0,93.0,116.0,97.0,124.0,97.0,128.0,101.0,116.0,101.0" stroke="black" stroke-width="1" fill="none" />
<polyline points="112.0,109.0,108.0,109.0,108.0,113.0,112.0,113.0,112.0,117.0,108.0,117.0" stroke="black" stroke-width="1" fill="none" />
<polyline points="112.0,125.0,116.0,125.0,116.0,129.0,112.0,129.0,116.0,133.0,120.0,133.0,120.0,137.0,124.0,137.0,124.0,141.0,120.0,141.0" stroke="black" stroke-width="1" fill="none" />
<polyline points="136.0,149.0,140.0,149.0,144.0,153.0,160.0,153.0" stroke="black" stroke-width="1" fill="none" />
<polyline points="172.0,137.0,180.0,137.0" stroke="black" stroke-width="1" fill="none" />
<polyline points="172.0,133.0,188.0,133.0,184.0,129.0,196.0,129.0" stroke="black" stroke-width="1" fill="none" />
<polyline points="212.0,117.0,176.0,117.0" stroke="black" stroke-width="1" fill="none" />
<polyline points="168.0,117.0,160.0,117.0" stroke="black" stroke-width="1" fill="none" />
<polyline points="148.0,109.0,232.0,109.0" stroke="black" stroke-width="1" fill="none" />
<polyline points="184.0,92.0,176.0,100.0,172.0,100.0,184.0,88.0" stroke="black" stroke-width="1" fill="none" />
<polyline points="176.0,88.0,168.0,96.0,168.0,100.0,176.0,92.0,172.0,88.0,164.0,96.0,164.0,97.0,188.0,97.0" stroke="black" stroke-width="1" fill="none" />
<polyline points="172.0,84.0,164.0,92.0,164.0,88.0,172.0,80.0,168.0,80.0,164.0,84.0,160.0,80.0,156.0,84.0" stroke="black" stroke-width="1" fill="none" />
<polyline points="160.0,89.0,188.0,89.0" stroke="black" stroke-width="1" fill="none" />
<polyline points="184.0,101.0,164.0,101.0" stroke="black" stroke-width="1" fill="none" />
<polyline points="160.0,93.0,188.0,93.0" stroke="black" stroke-width="1" fill="none" />
<polyline points="168.0,60.0,176.0,52.0,172.0,52.0,168.0,56.0" stroke="black" stroke-width="1" fill="none" />
<polyline points="152.0,49.0,196.0,49.0" stroke="black" stroke-width="1" fill="none" />
<polyline points="212.0,53.0,144.0,53.0,140.0,57.0,216.0,57.0" stroke="black" stroke-width="1" fill="none" />
<polyline points="148.0,88.0,144.0,92.0" stroke="black" stroke-width="1" fill="none" />
<polyline points="136.0,93.0,156.0,93.0" stroke="black" stroke-width="1" fill="none" />
<polyline points="160.0,101.0,144.0,101.0,148.0,105.0,212.0,105.0" stroke="black" stroke-width="1" fill="none" />
<polyline points="148.0,117.0,140.0,117.0,136.0,113.0,216.0,113.0" stroke="black" stroke-width="1" fill="none" />
<polyline points="212.0,193.0,232.0,193.0" stroke="black" stroke-width="1" fill="none" />
<polyline points="228.0,209.0,220.0,209.0,216.0,205.0,296.0,205.0" stroke="black" stroke-width="1" fill="none" />
<polyline points="296.0,193.0,260.0,193.0" stroke="black" stroke-width="1" fill="none" />
<polyline points="252.0,213.0,296.0,213.0,292.0,209.0,244.0,209.0" stroke="black" stroke-width="1" fill="none" />
<polyline points="212.0,201.0,296.0,201.0" stroke="black" stroke-width="1" fill="none" />
<polyline points="264.0,277.0,244.0,277.0" stroke="black" stroke-width="1" fill="none" />
<polyline points="224.0,273.0,368.0,273.0" stroke="black" stroke-width="1" fill="none" />
<polyline points="404.0,293.0,264.0,293.0" stroke="black" stroke-width="1" fill="none" />
<polyline points="252.0,297.0,408.0,297.0" stroke="black" stroke-width="1" fill="none" />
<polyline points="512.0,349.0,260.0,349.0" stroke="black" stroke-width="1" fill="none" />
<polyline points="228.0,353.0,512.0,353.0" stroke="black" stroke-width="1" fill="none" />
<polyline points="512.0,499.0,264.0,499.0" stroke="black" stroke-width="1" fill="none" />
<polyline points="232.0,485.0,228.0,485.0,224.0,489.0,240.0,489.0" stroke="black" stroke-width="1" fill="none" />
<polyline points="224.0,496.0,212.0,508.0,208.0,508.0,220.0,496.0,220.0,492.0,204.0,508.0,200.0,508.0,216.0,492.0" stroke="black" stroke-width="1" fill="none" />
<polyline points="216.0,480.0,188.0,508.0,184.0,508.0,212.0,480.0,208.0,480.0,180.0,508.0,176.0,508.0,208.0,476.0,204.0,476.0,172.0,508.0,168.0,508.0,196.0,480.0,196.0,476.0,164.0,508.0,160.0,508.0,192.0,476.0,192.0,472.0,156.0,508.0,152.0,508.0,188.0,472.0,188.0,468.0,148.0,508.0,144.0,508.0,184.0,468.0,184.0,464.0,140.0,508.0" stroke="black" stroke-width="1" fill="none" />
<polyline points="128.0,508.0,180.0,456.0,176.0,456.0,124.0,508.0,120.0,508.0,176.0,452.0,176.0,448.0,116.0,508.0,112.0,508.0,172.0,448.0,172.0,444.0,108.0,508.0,104.0,508.0,172.0,440.0,168.0,440.0,100.0,508.0,96.0,508.0,168.0,436.0,164.0,436.0,92.0,508.0,88.0,508.0,164.0,432.0,164.0,428.0,84.0,508.0,80.0,508.0,160.0,428.0,160.0,424.0,76.0,508.0" stroke="black" stroke-width="1" fill="none" />
<polyline points="60.0,508.0,160.0,408.0,156.0,408.0,56.0,508.0" stroke="black" stroke-width="1" fill="none" />
<polyline points="64.0,508.0,156.0,416.0" stroke="black" stroke-width="1" fill="none" />
<polyline points="156.0,404.0,52.0,508.0,48.0,508.0,156.0,400.0,152.0,400.0,44.0,508.0" stroke="black" stroke-width="1" fill="none" />
<polyline points="32.0,508.0,152.0,388.0,148.0,388.0,28.0,508.0" stroke="black" stroke-width="1" fill="none" />
<polyline points="4.0,508.0,140.0,372.0,140.0,368.0,0.0,508.0,0.0,507.0,512.0,507.0" stroke="black" stroke-width="1" fill="none" />
<polyline points="512.0,413.0,240.0,413.0,236.0,409.0,512.0,409.0" stroke="black" stroke-width="1" fill="none" />
<polyline points="428.0,321.0,236.0,321.0" stroke="black" stroke-width="1" fill="none" />
<polyline points="228.0,321.0,224.0,321.0" stroke="black" stroke-width="1" fill="none" />
<polyline points="216.0,317.0,424.0,317.0" stroke="black" stroke-width="1" fill="none" />
<polyline points="512.0,405.0,228.0,405.0,224.0,401.0,512.0,401.0,512.0,397.0,216.0,397.0" stroke="black" stroke-width="1" fill="none" />
<polyline points="208.0,393.0,512.0,393.0" stroke="black" stroke-width="1" fill="none" />
<polyline points="236.0,257.0,216.0,257.0" stroke="black" stroke-width="1" fill="none" />
<polyline points="208.0,261.0,360.0,261.0" stroke="black" stroke-width="1" fill="none" />
<polyline points="420.0,313.0,212.0,313.0" stroke="black" stroke-width="1" fill="none" />
<polyline points="204.0,301.0,412.0,301.0" stroke="black" stroke-width="1" fill="none" />
<polyline points="296.0,197.0,208.0,197.0" stroke="black" stroke-width="1" fill="none" />
<polyline points="180.0,265.0,360.0,265.0" stroke="black" stroke-width="1" fill="none" />
<polyline points="224.0,297.0,200.0,297.0,200.0,293.0,212.0,293.0,208.0,289.0,200.0,289.0,200.0,285.0,188.0,285.0,184.0,281.0,196.0,281.0" stroke="black" stroke-width="1" fill="none" />
<polyline points="208.0,273.0,180.0,273.0,180.0,269.0,364.0,269.0" stroke="black" stroke-width="1" fill="none" />
<polyline points="416.0,309.0,188.0,309.0,188.0,305.0,416.0,305.0" stroke="black" stroke-width="1" fill="none" />
<polyline points="512.0,389.0,200.0,389.0,196.0,385.0,512.0,385.0,512.0,381.0,192.0,381.0,188.0,377.0,512.0,377.0" stroke="black" stroke-width="1" fill="none" />
<polyline points="200.0,457.0,196.0,457.0,196.0,453.0,192.0,453.0,192.0,449.0,188.0,449.0,188.0,445.0,184.0,445.0,180.0,441.0,188.0,441.0,184.0,437.0,176.0,437.0" stroke="black" stroke-width="1" fill="none" />
<polyline points="188.0,373.0,512.0,373.0,512.0,369.0,184.0,369.0,180.0,365.0,512.0,365.0,512.0,361.0,176.0,361.0,176.0,357.0,512.0,357.0" stroke="black" stroke-width="1" fill="none" />
<polyline points="192.0,277.0,176.0,277.0" stroke="black" stroke-width="1" fill="none" />
<polyline points="164.0,305.0,160.0,305.0" stroke="black" stroke-width="1" fill="none" />
<polyline points="148.0,297.0,144.0,297.0,140.0,293.0,148.0,293.0,144.0,289.0,140.0,289.0,136.0,293.0,128.0,293.0,128.0,289.0,136.0,289.0,136.0,285.0,128.0,285.0,128.0,281.0,136.0,281.0,136.0,277.0,128.0,277.0,124.0,273.0,136.0,273.0,132.0,269.0,128.0,269.0" stroke="black" stroke-width="1" fill="none" />
<polyline points="124.0,297.0,140.0,297.0" stroke="black" stroke-width="1" fill="none" />
<polyline points="136.0,305.0,156.0,305.0" stroke="black" stroke-width="1" fill="none" />
<polyline points="164.0,309.0,140.0,309.0,140.0,313.0,192.0,313.0" stroke="black" stroke-width="1" fill="none" />
<polyline points="196.0,349.0,168.0,349.0,164.0,345.0,184.0,345.0" stroke="black" stroke-width="1" fill="none" />
<polyline points="172.0,353.0,212.0,353.0" stroke="black" stroke-width="1" fill="none" />
<polyline points="180.0,341.0,164.0,341.0,160.0,337.0,180.0,337.0,176.0,333.0,156.0,333.0,152.0,329.0,176.0,329.0,176.0,325.0,148.0,325.0,144.0,321.0,176.0,321.0" stroke="black" stroke-width="1" fill="none" />
<polyline points="184.0,317.0,144.0,317.0" stroke="black" stroke-width="1" fill="none" />
<polyline points="128.0,316.0,0.0,444.0,0.0,443.0,168.0,443.0" stroke="black" stroke-width="1" fill="none" />
<polyline points="140.0,364.0,0.0,504.0,0.0,503.0,232.0,503.0" stroke="black" stroke-width="1" fill="none" />
<polyline points="140.0,360.0,0.0,500.0,0.0,499.0,216.0,499.0" stroke="black" stroke-width="1" fill="none" />
<polyline points="136.0,360.0,0.0,496.0,0.0,495.0,216.0,495.0" stroke="black" stroke-width="1" fill="none" />
<polyline points="136.0,356.0,0.0,492.0,0.0,491.0,216.0,491.0" stroke="black" stroke-width="1" fill="none" />
<polyline points="136.0,352.0,0.0,488.0,0.0,487.0,216.0,487.0" stroke="black" stroke-width="1" fill="none" />
<polyline points="132.0,352.0,0.0,484.0,0.0,483.0,212.0,483.0" stroke="black" stroke-width="1" fill="none" />
<polyline points="132.0,348.0,0.0,480.0,0.0,479.0,192.0,479.0" stroke="black" stroke-width="1" fill="none" />
<polyline points="132.0,344.0,0.0,476.0,0.0,475.0,188.0,475.0" stroke="black" stroke-width="1" fill="none" />
<polyline points="132.0,340.0,0.0,472.0,0.0,471.0,184.0,471.0" stroke="black" stroke-width="1" fill="none" />
<polyline points="128.0,340.0,0.0,468.0,0.0,467.0,180.0,467.0" stroke="black" stroke-width="1" fill="none" />
<polyline points="128.0,336.0,0.0,464.0,0.0,463.0,180.0,463.0" stroke="black" stroke-width="1" fill="none" />
<polyline points="124.0,339.0,116.0,339.0" stroke="black" stroke-width="1" fill="none" />
<polyline points="112.0,331.0,124.0,331.0,128.0,332.0,0.0,460.0,0.0,459.0,176.0,459.0" stroke="black" stroke-width="1" fill="none" />
<polyline points="128.0,328.0,0.0,456.0,0.0,455.0,176.0,455.0" stroke="black" stroke-width="1" fill="none" />
<polyline points="128.0,324.0,0.0,452.0,0.0,451.0,172.0,451.0" stroke="black" stroke-width="1" fill="none" />
<polyline points="124.0,327.0,112.0,327.0,108.0,323.0,120.0,323.0" stroke="black" stroke-width="1" fill="none" />
<polyline points="128.0,320.0,0.0,448.0,0.0,447.0,172.0,447.0" stroke="black" stroke-width="1" fill="none" />
<polyline points="104.0,331.0,100.0,331.0,100.0,327.0,104.0,327.0" stroke="black" stroke-width="1" fill="none" />
<polyline points="108.0,319.0,124.0,319.0" stroke="black" stroke-width="1" fill="none" />
<polyline points="128.0,312.0,0.0,440.0,0.0,439.0,164.0,439.0" stroke="black" stroke-width="1" fill="none" />
<polyline points="124.0,335.0,96.0,335.0" stroke="black" stroke-width="1" fill="none" />
<polyline points="84.0,339.0,112.0,339.0" stroke="black" stroke-width="1" fill="none" />
<polyline points="112.0,315.0,128.0,315.0" stroke="black" stroke-width="1" fill="none" />
<polyline points="128.0,308.0,0.0,436.0,0.0,435.0,164.0,435.0" stroke="black" stroke-width="1" fill="none" />
<polyline points="132.0,321.0,88.0,321.0,84.0,325.0,132.0,325.0" stroke="black" stroke-width="1" fill="none" />
<polyline points="128.0,304.0,0.0,432.0,0.0,431.0,160.0,431.0" stroke="black" stroke-width="1" fill="none" />
<polyline points="128.0,343.0,84.0,343.0" stroke="black" stroke-width="1" fill="none" />
<polyline points="76.0,347.0,128.0,347.0" stroke="black" stroke-width="1" fill="none" />
<polyline points="128.0,311.0,112.0,311.0,108.0,308.0,0.0,416.0,0.0,415.0,152.0,415.0" stroke="black" stroke-width="1" fill="none" />
<polyline points="132.0,333.0,80.0,333.0,80.0,329.0,132.0,329.0" stroke="black" stroke-width="1" fill="none" />
<polyline points="124.0,307.0,120.0,307.0,116.0,304.0,0.0,420.0,0.0,419.0,156.0,419.0" stroke="black" stroke-width="1" fill="none" />
<polyline points="132.0,317.0,92.0,317.0,96.0,313.0,132.0,313.0" stroke="black" stroke-width="1" fill="none" />
<polyline points="128.0,300.0,0.0,428.0,0.0,427.0,160.0,427.0" stroke="black" stroke-width="1" fill="none" />
<polyline points="132.0,351.0,76.0,351.0" stroke="black" stroke-width="1" fill="none" />
<polyline points="68.0,355.0,132.0,355.0" stroke="black" stroke-width="1" fill="none" />
<polyline points="132.0,305.0,108.0,305.0,112.0,301.0,152.0,301.0" stroke="black" stroke-width="1" fill="none" />
<polyline points="124.0,300.0,0.0,424.0,0.0,423.0,156.0,423.0" stroke="black" stroke-width="1" fill="none" />
<polyline points="132.0,309.0,100.0,309.0" stroke="black" stroke-width="1" fill="none" />
<polyline points="76.0,337.0,132.0,337.0,136.0,341.0,68.0,341.0,64.0,345.0,136.0,345.0" stroke="black" stroke-width="1" fill="none" />
<polyline points="64.0,348.0,0.0,412.0,0.0,411.0,152.0,411.0" stroke="black" stroke-width="1" fill="none" />
<polyline points="68.0,351.0,64.0,351.0" stroke="black" stroke-width="1" fill="none" />
<polyline points="56.0,352.0,0.0,408.0,0.0,407.0,148.0,407.0" stroke="black" stroke-width="1" fill="none" />
<polyline points="60.0,355.0,56.0,355.0" stroke="black" stroke-width="1" fill="none" />
<polyline points="56.0,349.0,136.0,349.0" stroke="black" stroke-width="1" fill="none" />
<polyline points="48.0,356.0,0.0,404.0,0.0,403.0,148.0,403.0" stroke="black" stroke-width="1" fill="none" />
<polyline points="132.0,359.0,48.0,359.0,44.0,356.0,0.0,400.0,0.0,399.0,148.0,399.0" stroke="black" stroke-width="1" fill="none" />
<polyline points="140.0,353.0,44.0,353.0" stroke="black" stroke-width="1" fill="none" />
<polyline points="36.0,360.0,0.0,396.0,0.0,395.0,148.0,395.0" stroke="black" stroke-width="1" fill="none" />
<polyline points="136.0,363.0,36.0,363.0,32.0,360.0,0.0,392.0,0.0,391.0,144.0,391.0" stroke="black" stroke-width="1" fill="none" />
<polyline points="140.0,357.0,32.0,357.0" stroke="black" stroke-width="1" fill="none" />
<polyline points="24.0,361.0,144.0,361.0" stroke="black" stroke-width="1" fill="none" />
<polyline points="24.0,364.0,0.0,388.0,0.0,387.0,140.0,387.0" stroke="black" stroke-width="1" fill="none" />
<polyline points="132.0,367.0,24.0,367.0" stroke="black" stroke-width="1" fill="none" />
<polyline points="16.0,368.0,0.0,384.0,0.0,383.0,140.0,383.0" stroke="black" stroke-width="1" fill="none" />
<polyline points="136.0,371.0,16.0,371.0,12.0,368.0,0.0,380.0,0.0,379.0,140.0,379.0" stroke="black" stroke-width="1" fill="none" />
<polyline points="144.0,365.0,16.0,365.0" stroke="black" stroke-width="1" fill="none" />
<polyline points="4.0,372.0,0.0,376.0,0.0,377.0,148.0,377.0" stroke="black" stroke-width="1" fill="none" />
<polyline points="136.0,375.0,4.0,375.0,0.0,373.0,148.0,373.0" stroke="black" stroke-width="1" fill="none" />
<polyline points="220.0,489.0,0.0,489.0,0.0,485.0,220.0,485.0" stroke="black" stroke-width="1" fill="none" />
<polyline points="240.0,497.0,0.0,497.0,0.0,493.0,240.0,493.0" stroke="black" stroke-width="1" fill="none" />
<polyline points="0.0,501.0,512.0,501.0,512.0,505.0,0.0,505.0" stroke="black" stroke-width="1" fill="none" />
<polyline points="0.0,481.0,216.0,481.0,212.0,477.0,0.0,477.0,0.0,473.0,196.0,473.0,192.0,469.0,0.0,469.0,0.0,465.0,188.0,465.0,188.0,461.0,0.0,461.0,0.0,457.0,184.0,457.0,180.0,453.0,0.0,453.0,0.0,449.0,180.0,449.0,176.0,445.0,0.0,445.0,0.0,441.0,176.0,441.0,172.0,437.0,0.0,437.0,0.0,433.0,180.0,433.0,180.0,429.0,0.0,429.0,0.0,425.0,176.0,425.0,176.0,421.0,0.0,421.0,0.0,417.0,172.0,417.0,172.0,413.0,0.0,413.0,0.0,409.0,168.0,409.0,164.0,405.0,0.0,405.0,0.0,401.0,164.0,401.0,160.0,397.0,0.0,397.0,0.0,393.0,160.0,393.0,156.0,389.0,0.0,389.0,0.0,385.0,156.0,385.0,152.0,381.0,0.0,381.0" stroke="black" stroke-width="1" fill="none" />
<polyline points="96.0,193.0,100.0,193.0" stroke="black" stroke-width="1" fill="none" />
<polyline points="104.0,105.0,112.0,105.0,112.0,101.0,104.0,101.0,104.0,96.0,108.0,92.0,104.0,92.0,112.0,84.0,112.0,80.0,100.0,92.0,100.0,93.0,108.0,93.0,108.0,91.0,104.0,91.0,100.0,88.0,124.0,64.0,124.0,61.0,228.0,61.0" stroke="black" stroke-width="1" fill="none" />
<polyline points="156.0,97.0,136.0,97.0" stroke="black" stroke-width="1" fill="none" />
<polyline points="132.0,89.0,156.0,89.0" stroke="black" stroke-width="1" fill="none" />
<polyline points="132.0,85.0,188.0,85.0" stroke="black" stroke-width="1" fill="none" />
<polyline points="140.0,109.0,132.0,109.0" stroke="black" stroke-width="1" fill="none" />
<polyline points="132.0,81.0,176.0,81.0,172.0,77.0,132.0,77.0,128.0,73.0,172.0,73.0" stroke="black" stroke-width="1" fill="none" />
<polyline points="116.0,64.0,96.0,84.0,96.0,80.0,112.0,64.0" stroke="black" stroke-width="1" fill="none" />
<polyline points="104.0,68.0,92.0,80.0,92.0,76.0,100.0,68.0,96.0,68.0,92.0,72.0,92.0,71.0,120.0,71.0,116.0,75.0,112.0,75.0" stroke="black" stroke-width="1" fill="none" />
<polyline points="108.0,87.0,100.0,87.0,100.0,83.0,108.0,83.0,112.0,79.0,96.0,79.0" stroke="black" stroke-width="1" fill="none" />
<polyline points="88.0,77.0,116.0,77.0" stroke="black" stroke-width="1" fill="none" />
<polyline points="108.0,97.0,100.0,97.0" stroke="black" stroke-width="1" fill="none" />
<polyline points="88.0,85.0,116.0,85.0,112.0,81.0,88.0,81.0" stroke="black" stroke-width="1" fill="none" />
<polyline points="88.0,73.0,120.0,73.0" stroke="black" stroke-width="1" fill="none" />
<polyline points="96.0,65.0,228.0,65.0,228.0,69.0,88.0,69.0" stroke="black" stroke-width="1" fill="none" />
<polyline points="80.0,93.0,76.0,93.0,76.0,97.0,84.0,97.0,84.0,101.0,80.0,101.0" stroke="black" stroke-width="1" fill="none" />
</svg>